<svg xmlns="http://www.w3.org/2000/svg" width="760" height="560" viewBox="0 0 760 560" role="img" aria-labelledby="title desc">
  <title id="title">AI-driven workflow automation illustration</title>
  <desc id="desc">An intelligent automation workflow connecting triggers, AI decisions, and actions.</desc>
  <rect width="760" height="560" rx="42" fill="#f7f9fc"/>
  <rect x="92" y="86" width="576" height="388" rx="34" fill="#fff" stroke="#d8e2ef" stroke-width="2"/>
  <g fill="#f0f6ff" stroke="#d2deec" stroke-width="2">
    <rect x="124" y="238" width="120" height="82" rx="24"/>
    <rect x="320" y="156" width="120" height="82" rx="24"/>
    <rect x="320" y="334" width="120" height="82" rx="24"/>
    <rect x="516" y="238" width="120" height="82" rx="24"/>
  </g>
  <g stroke="#2d82ff" stroke-width="5" stroke-linecap="round" stroke-linejoin="round">
    <path d="M244 279c42 0 50-74 76-82"/>
    <path d="M244 279c42 0 50 74 76 82"/>
    <path d="M440 197c42 8 45 74 76 82"/>
    <path d="M440 375c42-8 45-74 76-82"/>
  </g>
  <g fill="#2d82ff">
    <circle cx="184" cy="279" r="12"/>
    <circle cx="380" cy="197" r="12"/>
    <circle cx="380" cy="375" r="12"/>
    <circle cx="576" cy="279" r="12"/>
  </g>
  <path d="M156 300h56M352 218h56M352 396h56M548 300h56" stroke="#7f95ad" stroke-width="8" stroke-linecap="round"/>
  <rect x="126" y="126" width="146" height="42" rx="21" fill="#fff" stroke="#d8e2ef"/>
  <path d="M154 147h90" stroke="#2d82ff" stroke-width="7" stroke-linecap="round"/>
</svg>
