<svg xmlns="http://www.w3.org/2000/svg" width="760" height="560" viewBox="0 0 760 560" role="img" aria-labelledby="title desc">
  <title id="title">Predictive analytics dashboard illustration</title>
  <desc id="desc">A prediction dashboard with charts, insight cards, and business forecasting signals.</desc>
  <rect width="760" height="560" rx="42" fill="#f7f9fc"/>
  <rect x="88" y="82" width="584" height="396" rx="34" fill="#fff" stroke="#d8e2ef" stroke-width="2"/>
  <rect x="124" y="126" width="168" height="92" rx="24" fill="#f0f6ff" stroke="#d2deec"/>
  <rect x="322" y="126" width="168" height="92" rx="24" fill="#f0f6ff" stroke="#d2deec"/>
  <rect x="520" y="126" width="116" height="92" rx="24" fill="#f0f6ff" stroke="#d2deec"/>
  <rect x="124" y="256" width="512" height="174" rx="26" fill="#0f172a"/>
  <path d="M158 378c40-80 82-102 126-66 35 28 70 20 104-26 40-52 82-50 126 7 28 38 58 44 88 18" fill="none" stroke="#2d82ff" stroke-width="7" stroke-linecap="round"/>
  <path d="M158 340h444M158 304h444M158 388h444" stroke="#263856" stroke-width="2"/>
  <path d="M154 174h78M352 174h82M548 174h52M154 196h52M352 196h58" stroke="#7f95ad" stroke-width="8" stroke-linecap="round"/>
  <circle cx="516" cy="294" r="8" fill="#67b7ff"/>
  <circle cx="602" cy="311" r="8" fill="#67b7ff"/>
</svg>
