<svg xmlns="http://www.w3.org/2000/svg" width="760" height="560" viewBox="0 0 760 560" role="img" aria-labelledby="title desc">
  <title id="title">Computer vision recognition illustration</title>
  <desc id="desc">An image recognition interface identifying visual regions and document signals.</desc>
  <rect width="760" height="560" rx="42" fill="#f7f9fc"/>
  <rect x="92" y="84" width="576" height="392" rx="34" fill="#fff" stroke="#d8e2ef" stroke-width="2"/>
  <rect x="126" y="126" width="330" height="284" rx="28" fill="#0f172a"/>
  <rect x="486" y="126" width="148" height="64" rx="22" fill="#f0f6ff" stroke="#d2deec"/>
  <rect x="486" y="214" width="148" height="64" rx="22" fill="#f0f6ff" stroke="#d2deec"/>
  <rect x="486" y="302" width="148" height="64" rx="22" fill="#f0f6ff" stroke="#d2deec"/>
  <path d="M174 194h96v74h-96zM312 260h96v92h-96z" fill="none" stroke="#2d82ff" stroke-width="5"/>
  <circle cx="302" cy="202" r="42" fill="#18263f" stroke="#2d82ff" stroke-width="4"/>
  <path d="M166 382h244" stroke="#263856" stroke-width="5" stroke-linecap="round"/>
  <path d="M516 154h86M516 242h86M516 330h86" stroke="#7f95ad" stroke-width="8" stroke-linecap="round"/>
  <path d="M178 428h196M178 450h128" stroke="#7f95ad" stroke-width="8" stroke-linecap="round"/>
  <circle cx="622" cy="154" r="8" fill="#2d82ff"/>
  <circle cx="622" cy="242" r="8" fill="#2d82ff"/>
  <circle cx="622" cy="330" r="8" fill="#2d82ff"/>
</svg>
