<svg width="720" height="520" viewBox="0 0 720 520" fill="none" xmlns="http://www.w3.org/2000/svg" role="img">
  <rect width="720" height="520" rx="34" fill="#0E1A31"/>
  <rect x="54" y="50" width="612" height="420" rx="28" fill="#132642" stroke="#2D82FF" stroke-opacity=".24"/>
  <circle cx="226" cy="230" r="86" fill="#1E3B6C"/>
  <circle cx="226" cy="230" r="44" fill="#2D82FF"/>
  <path d="M226 122v-38M226 376v-38M334 230h38M80 230h38M303 153l27-27M122 334l27-27M303 307l27 27M122 126l27 27" stroke="#8FC7FF" stroke-width="11" stroke-linecap="round"/>
  <rect x="394" y="150" width="202" height="24" rx="12" fill="#E6F2FF" fill-opacity=".8"/>
  <rect x="394" y="210" width="238" height="18" rx="9" fill="#89A8CE"/>
  <rect x="394" y="254" width="190" height="18" rx="9" fill="#587AA6"/>
  <rect x="394" y="332" width="136" height="54" rx="18" fill="#173056"/>
</svg>
