<svg xmlns="http://www.w3.org/2000/svg" width="760" height="520" viewBox="0 0 760 520" role="img" aria-labelledby="title desc">
  <title id="title">Growth analytics and long-term support illustration</title>
  <desc id="desc">Growth analytics dashboard with optimization and support signals.</desc>
  <rect width="760" height="520" rx="36" fill="#111c31"/>
  <rect x="92" y="82" width="576" height="356" rx="30" fill="#0a0f1f" stroke="#263856" stroke-width="2"/>
  <g fill="#142139" stroke="#2a3e60" stroke-width="2">
    <rect x="128" y="128" width="162" height="100" rx="22"/>
    <rect x="320" y="128" width="312" height="100" rx="22"/>
    <rect x="128" y="262" width="504" height="122" rx="24"/>
  </g>
  <path d="M160 334c46-64 84-78 114-42 28 34 62 22 102-36 40-58 86-52 138 18 26 34 54 42 84 22" fill="none" stroke="#2d82ff" stroke-width="8" stroke-linecap="round"/>
  <path d="M160 178h88M354 178h208M354 204h126M160 360h438" stroke="#8ba4c8" stroke-width="8" stroke-linecap="round"/>
  <circle cx="552" cy="274" r="10" fill="#67b7ff"/>
  <circle cx="598" cy="296" r="10" fill="#67b7ff"/>
</svg>
