<svg xmlns="http://www.w3.org/2000/svg" width="760" height="520" viewBox="0 0 760 520" role="img" aria-labelledby="title desc">
  <title id="title">Software development code editor illustration</title>
  <desc id="desc">A development workspace with code editor, browser preview, and API modules.</desc>
  <rect width="760" height="520" rx="36" fill="#111c31"/>
  <rect x="86" y="76" width="588" height="368" rx="30" fill="#0a0f1f" stroke="#263856" stroke-width="2"/>
  <rect x="86" y="76" width="588" height="62" rx="30" fill="#18263f"/>
  <circle cx="126" cy="107" r="7" fill="#6ea7ff"/>
  <circle cx="152" cy="107" r="7" fill="#8d7cff"/>
  <circle cx="178" cy="107" r="7" fill="#22c3d6"/>
  <g fill="#142139" stroke="#2a3e60" stroke-width="2">
    <rect x="126" y="176" width="300" height="220" rx="22"/>
    <rect x="458" y="176" width="176" height="92" rx="22"/>
    <rect x="458" y="296" width="176" height="100" rx="22"/>
  </g>
  <path d="M158 222h118M158 252h210M158 282h166M158 312h228M158 342h140M490 220h104M490 244h70M490 336h92" stroke="#8ba4c8" stroke-width="8" stroke-linecap="round"/>
  <path d="M166 374h94M498 360h72" stroke="#2d82ff" stroke-width="8" stroke-linecap="round"/>
</svg>
