<svg xmlns="http://www.w3.org/2000/svg" width="760" height="520" viewBox="0 0 760 520" role="img" aria-labelledby="title desc">
  <title id="title">Architecture strategy blueprint illustration</title>
  <desc id="desc">A technical blueprint showing architecture planning and milestone mapping.</desc>
  <rect width="760" height="520" rx="36" fill="#111c31"/>
  <rect x="94" y="82" width="572" height="356" rx="30" fill="#0a0f1f" stroke="#263856" stroke-width="2"/>
  <path d="M140 160h480M140 226h480M140 292h480M140 358h480M206 124v276M380 124v276M554 124v276" stroke="#1f2d48" stroke-width="2"/>
  <g fill="#142139" stroke="#2a3e60" stroke-width="2">
    <rect x="158" y="152" width="118" height="58" rx="18"/>
    <rect x="322" y="220" width="118" height="58" rx="18"/>
    <rect x="486" y="288" width="118" height="58" rx="18"/>
  </g>
  <path d="M276 181c40 0 46 68 46 68M440 249c40 0 46 68 46 68" fill="none" stroke="#2d82ff" stroke-width="5" stroke-linecap="round"/>
  <path d="M184 181h66M348 249h66M512 317h66M158 390h210" stroke="#8ba4c8" stroke-width="8" stroke-linecap="round"/>
  <circle cx="216" cy="118" r="10" fill="#2d82ff"/>
  <circle cx="554" cy="400" r="10" fill="#2d82ff"/>
</svg>
