<svg xmlns="http://www.w3.org/2000/svg" width="760" height="520" viewBox="0 0 760 520" role="img" aria-labelledby="title desc">
  <title id="title">Business discovery and research illustration</title>
  <desc id="desc">Research documents, discovery notes, and opportunity signals for early product planning.</desc>
  <rect width="760" height="520" rx="36" fill="#111c31"/>
  <rect x="96" y="82" width="568" height="356" rx="30" fill="#0a0f1f" stroke="#263856" stroke-width="2"/>
  <g fill="#142139" stroke="#2a3e60" stroke-width="2">
    <rect x="132" y="132" width="192" height="250" rx="24"/>
    <rect x="356" y="132" width="272" height="112" rx="24"/>
    <rect x="356" y="270" width="124" height="112" rx="24"/>
    <rect x="504" y="270" width="124" height="112" rx="24"/>
  </g>
  <path d="M166 174h118M166 206h86M166 238h128M166 310h108M386 176h198M386 206h126" stroke="#8ba4c8" stroke-width="8" stroke-linecap="round"/>
  <circle cx="418" cy="326" r="28" fill="#2d82ff"/>
  <path d="M438 346l36 36" stroke="#2d82ff" stroke-width="10" stroke-linecap="round"/>
  <path d="M536 328h62M536 354h42" stroke="#8ba4c8" stroke-width="8" stroke-linecap="round"/>
</svg>
