<svg xmlns="http://www.w3.org/2000/svg" width="760" height="520" viewBox="0 0 760 520" role="img" aria-labelledby="title desc">
  <title id="title">UI and UX design workspace illustration</title>
  <desc id="desc">Design workspace with wireframes, interface components, and prototype screens.</desc>
  <rect width="760" height="520" rx="36" fill="#111c31"/>
  <rect x="96" y="82" width="568" height="356" rx="30" fill="#0a0f1f" stroke="#263856" stroke-width="2"/>
  <g fill="#142139" stroke="#2a3e60" stroke-width="2">
    <rect x="132" y="130" width="248" height="250" rx="26"/>
    <rect x="414" y="130" width="214" height="84" rx="22"/>
    <rect x="414" y="238" width="94" height="142" rx="22"/>
    <rect x="534" y="238" width="94" height="142" rx="22"/>
  </g>
  <path d="M164 184h184M164 226h124M164 300h184M444 170h146M444 276h36M564 276h36" stroke="#8ba4c8" stroke-width="8" stroke-linecap="round"/>
  <path d="M164 338h92" stroke="#2d82ff" stroke-width="12" stroke-linecap="round"/>
  <path d="M474 332l-28-28 36-36 28 28-36 36zM594 310h-36v-36h36v36z" fill="none" stroke="#2d82ff" stroke-width="6" stroke-linejoin="round"/>
</svg>
