<svg width="520" height="360" viewBox="0 0 520 360" fill="none" xmlns="http://www.w3.org/2000/svg" role="img">
  <rect width="520" height="360" rx="32" fill="#0D1830"/>
  <rect x="36" y="38" width="448" height="284" rx="26" fill="#132642" stroke="#5CA7FF" stroke-opacity=".24"/>
  <rect x="70" y="74" width="380" height="48" rx="16" fill="#192D4E"/>
  <circle cx="96" cy="98" r="8" fill="#2D82FF"/>
  <circle cx="122" cy="98" r="8" fill="#67B7FF"/>
  <rect x="154" y="89" width="128" height="16" rx="8" fill="#DCEBFF" fill-opacity=".76"/>
  <rect x="70" y="154" width="124" height="106" rx="20" fill="#162844" stroke="#5CA7FF" stroke-opacity=".26"/>
  <rect x="218" y="154" width="232" height="106" rx="20" fill="#162844" stroke="#5CA7FF" stroke-opacity=".26"/>
  <path d="M96 217l30-30 30 30M126 187v56" stroke="#2D82FF" stroke-width="10" stroke-linecap="round" stroke-linejoin="round"/>
  <path d="M254 226c24-46 52-52 84-16 30 33 55 26 80-22" stroke="#2D82FF" stroke-width="9" stroke-linecap="round"/>
  <rect x="254" y="184" width="96" height="14" rx="7" fill="#DCEBFF" fill-opacity=".74"/>
  <rect x="254" y="262" width="152" height="12" rx="6" fill="#7A9CC3"/>
  <rect x="254" y="286" width="116" height="12" rx="6" fill="#526F99"/>
</svg>
