<svg width="920" height="620" viewBox="0 0 920 620" fill="none" xmlns="http://www.w3.org/2000/svg" role="img">
  <rect width="920" height="620" rx="44" fill="#0D1830"/>
  <rect x="46" y="44" width="828" height="532" rx="34" fill="#111F3A" stroke="#2D82FF" stroke-opacity=".28"/>
  <rect x="86" y="88" width="748" height="64" rx="20" fill="#162844"/>
  <circle cx="123" cy="120" r="13" fill="#2D82FF"/>
  <rect x="154" y="111" width="172" height="18" rx="9" fill="#DCEBFF" fill-opacity=".72"/>
  <rect x="612" y="108" width="174" height="24" rx="12" fill="#243A5F"/>
  <rect x="86" y="188" width="246" height="154" rx="26" fill="#152640" stroke="#5CA7FF" stroke-opacity=".24"/>
  <rect x="118" y="222" width="94" height="18" rx="9" fill="#94B7DD"/>
  <rect x="118" y="260" width="164" height="16" rx="8" fill="#587CA9"/>
  <rect x="118" y="296" width="122" height="16" rx="8" fill="#587CA9"/>
  <circle cx="278" cy="258" r="31" fill="#2D82FF"/>
  <path d="M266 258h24M278 246v24" stroke="#EAF4FF" stroke-width="8" stroke-linecap="round"/>
  <rect x="368" y="188" width="466" height="154" rx="26" fill="#152640" stroke="#5CA7FF" stroke-opacity=".24"/>
  <path d="M408 288c32-56 68-66 108-31 43 38 82 22 116-40 31-56 70-54 116 4 18 23 35 35 53 36" stroke="#2D82FF" stroke-width="12" stroke-linecap="round"/>
  <circle cx="408" cy="288" r="9" fill="#87C9FF"/>
  <circle cx="801" cy="257" r="9" fill="#87C9FF"/>
  <rect x="408" y="222" width="166" height="16" rx="8" fill="#94B7DD"/>
  <rect x="86" y="378" width="356" height="150" rx="26" fill="#152640" stroke="#5CA7FF" stroke-opacity=".24"/>
  <rect x="118" y="414" width="134" height="18" rx="9" fill="#94B7DD"/>
  <rect x="118" y="460" width="272" height="16" rx="8" fill="#587CA9"/>
  <rect x="118" y="492" width="224" height="16" rx="8" fill="#587CA9"/>
  <rect x="478" y="378" width="356" height="150" rx="26" fill="#152640" stroke="#5CA7FF" stroke-opacity=".24"/>
  <rect x="510" y="414" width="154" height="18" rx="9" fill="#94B7DD"/>
  <rect x="510" y="460" width="244" height="16" rx="8" fill="#587CA9"/>
  <rect x="510" y="492" width="190" height="16" rx="8" fill="#587CA9"/>
  <circle cx="770" cy="456" r="36" fill="#1F65C8"/>
  <path d="M753 458l12 12 24-31" stroke="#EAF4FF" stroke-width="8" stroke-linecap="round" stroke-linejoin="round"/>
</svg>
