<svg xmlns="http://www.w3.org/2000/svg" width="760" height="520" viewBox="0 0 760 520" role="img" aria-labelledby="title desc">
  <title id="title">Artificial intelligence ecosystem illustration</title>
  <desc id="desc">A neural network ecosystem connected to automation and insight modules.</desc>
  <rect width="760" height="520" rx="36" fill="#111c31"/>
  <rect x="92" y="84" width="576" height="352" rx="30" fill="#0b1120" stroke="#263856" stroke-width="2"/>
  <g stroke="#2d82ff" stroke-width="4" stroke-linecap="round" stroke-linejoin="round" opacity=".9">
    <path d="M226 302l92-100 112 38 102-76"/>
    <path d="M318 202l8 148 104-110 24 122"/>
    <path d="M226 302l100 48 206-186"/>
  </g>
  <g fill="#142139" stroke="#2a3e60" stroke-width="2">
    <circle cx="226" cy="302" r="38"/>
    <circle cx="318" cy="202" r="42"/>
    <circle cx="326" cy="350" r="34"/>
    <circle cx="430" cy="240" r="54"/>
    <circle cx="454" cy="362" r="36"/>
    <circle cx="532" cy="164" r="34"/>
  </g>
  <g fill="#2d82ff">
    <circle cx="226" cy="302" r="9"/>
    <circle cx="318" cy="202" r="10"/>
    <circle cx="326" cy="350" r="8"/>
    <circle cx="430" cy="240" r="12"/>
    <circle cx="454" cy="362" r="9"/>
    <circle cx="532" cy="164" r="8"/>
  </g>
  <g fill="#0f172a" stroke="#2a3e60" stroke-width="2">
    <rect x="126" y="134" width="126" height="48" rx="24"/>
    <rect x="506" y="392" width="126" height="48" rx="24"/>
  </g>
  <path d="M156 158h66M536 416h66" stroke="#8ba4c8" stroke-width="7" stroke-linecap="round"/>
</svg>
