<svg xmlns="http://www.w3.org/2000/svg" width="760" height="520" viewBox="0 0 760 520" role="img" aria-labelledby="title desc">
  <title id="title">Database infrastructure illustration</title>
  <desc id="desc">Reliable database clusters connected to cache and analytics layers.</desc>
  <rect width="760" height="520" rx="36" fill="#111c31"/>
  <rect x="92" y="84" width="576" height="352" rx="30" fill="#0b1120" stroke="#263856" stroke-width="2"/>
  <g fill="#142139" stroke="#2a3e60" stroke-width="2">
    <path d="M260 170c0-30 54-54 120-54s120 24 120 54v154c0 30-54 54-120 54s-120-24-120-54V170z"/>
    <ellipse cx="380" cy="170" rx="120" ry="54"/>
    <rect x="128" y="284" width="112" height="72" rx="22"/>
    <rect x="520" y="284" width="112" height="72" rx="22"/>
  </g>
  <path d="M262 222c22 24 66 37 118 37s96-13 118-37M262 274c22 24 66 37 118 37s96-13 118-37" fill="none" stroke="#2a3e60" stroke-width="2"/>
  <g stroke="#2d82ff" stroke-width="5" stroke-linecap="round">
    <path d="M240 320h-56"/>
    <path d="M520 320h56"/>
    <path d="M380 378v38"/>
  </g>
  <g stroke="#8ba4c8" stroke-width="8" stroke-linecap="round">
    <path d="M320 170h120"/>
    <path d="M160 320h48"/>
    <path d="M552 320h48"/>
    <path d="M328 416h104"/>
  </g>
  <circle cx="380" cy="320" r="10" fill="#2d82ff"/>
</svg>
