<svg xmlns="http://www.w3.org/2000/svg" width="760" height="520" viewBox="0 0 760 520" role="img" aria-labelledby="title desc">
  <title id="title">Cloud infrastructure illustration</title>
  <desc id="desc">Highly available cloud infrastructure with distributed deployment nodes.</desc>
  <rect width="760" height="520" rx="36" fill="#111c31"/>
  <rect x="92" y="84" width="576" height="352" rx="30" fill="#0b1120" stroke="#263856" stroke-width="2"/>
  <path d="M276 260c-50 0-88 34-88 79 0 44 38 79 88 79h228c50 0 90-35 90-79 0-43-34-77-82-79-16-73-78-122-154-122-60 0-112 32-140 84 22 7 43 20 58 38z" fill="#142139" stroke="#2a3e60" stroke-width="2"/>
  <g stroke="#2d82ff" stroke-width="5" stroke-linecap="round" stroke-linejoin="round">
    <path d="M380 282v76"/>
    <path d="M380 358h-92v48"/>
    <path d="M380 358h92v48"/>
    <path d="M380 358v58"/>
  </g>
  <g fill="#0f172a" stroke="#2a3e60" stroke-width="2">
    <rect x="238" y="392" width="100" height="54" rx="18"/>
    <rect x="330" y="416" width="100" height="54" rx="18"/>
    <rect x="422" y="392" width="100" height="54" rx="18"/>
    <rect x="126" y="128" width="138" height="50" rx="25"/>
    <rect x="496" y="128" width="138" height="50" rx="25"/>
  </g>
  <path d="M160 153h70M530 153h70" stroke="#8ba4c8" stroke-width="8" stroke-linecap="round"/>
  <circle cx="288" cy="419" r="8" fill="#2d82ff"/>
  <circle cx="380" cy="443" r="8" fill="#2d82ff"/>
  <circle cx="472" cy="419" r="8" fill="#2d82ff"/>
</svg>
