<svg xmlns="http://www.w3.org/2000/svg" width="760" height="520" viewBox="0 0 760 520" role="img" aria-labelledby="title desc">
  <title id="title">API backend architecture illustration</title>
  <desc id="desc">Connected API services, business logic, and integration layers.</desc>
  <rect width="760" height="520" rx="36" fill="#111c31"/>
  <rect x="102" y="86" width="556" height="348" rx="30" fill="#0b1120" stroke="#263856" stroke-width="2"/>
  <g fill="#142139" stroke="#2a3e60" stroke-width="2">
    <rect x="138" y="142" width="146" height="80" rx="22"/>
    <rect x="307" y="220" width="146" height="80" rx="22"/>
    <rect x="476" y="142" width="146" height="80" rx="22"/>
    <rect x="138" y="320" width="146" height="70" rx="22"/>
    <rect x="476" y="320" width="146" height="70" rx="22"/>
  </g>
  <g stroke="#2d82ff" stroke-width="5" stroke-linecap="round" stroke-linejoin="round">
    <path d="M284 182h58c32 0 48 16 48 38"/>
    <path d="M476 182h-58c-32 0-48 16-48 38"/>
    <path d="M284 356h58c32 0 48-18 48-56"/>
    <path d="M476 356h-58c-32 0-48-18-48-56"/>
  </g>
  <circle cx="380" cy="260" r="18" fill="#2d82ff"/>
  <path d="M170 180h82M170 204h48M340 258h80M508 180h82M508 204h48M170 356h82M508 356h82" stroke="#8ba4c8" stroke-width="8" stroke-linecap="round"/>
  <path d="M340 124h80M340 396h80" stroke="#2d82ff" stroke-width="8" stroke-linecap="round"/>
</svg>
