<svg xmlns="http://www.w3.org/2000/svg" width="760" height="520" viewBox="0 0 760 520" role="img" aria-labelledby="title desc">
  <title id="title">CI/CD pipeline illustration</title>
  <desc id="desc">A DevOps deployment pipeline moving code through build, test, release, and runtime stages.</desc>
  <rect width="760" height="520" rx="36" fill="#111c31"/>
  <rect x="92" y="84" width="576" height="352" rx="30" fill="#0b1120" stroke="#263856" stroke-width="2"/>
  <g fill="#142139" stroke="#2a3e60" stroke-width="2">
    <rect x="126" y="206" width="112" height="82" rx="22"/>
    <rect x="270" y="206" width="112" height="82" rx="22"/>
    <rect x="414" y="206" width="112" height="82" rx="22"/>
    <rect x="558" y="206" width="74" height="82" rx="22"/>
    <rect x="184" y="344" width="392" height="54" rx="27"/>
  </g>
  <g stroke="#2d82ff" stroke-width="5" stroke-linecap="round" stroke-linejoin="round">
    <path d="M238 247h32"/>
    <path d="M382 247h32"/>
    <path d="M526 247h32"/>
    <path d="M380 288v56"/>
  </g>
  <path d="M156 248h54M300 248h54M444 248h54M584 248h22M224 371h312" stroke="#8ba4c8" stroke-width="8" stroke-linecap="round"/>
  <path d="M158 154h180M158 182h92M472 154h128M472 182h74" stroke="#2a3e60" stroke-width="8" stroke-linecap="round"/>
  <circle cx="380" cy="371" r="10" fill="#2d82ff"/>
</svg>
