<svg xmlns="http://www.w3.org/2000/svg" width="760" height="560" viewBox="0 0 760 560" role="img" aria-labelledby="title desc">
  <title id="title">Scalable cloud architecture illustration</title>
  <desc id="desc">A cloud architecture expanding into connected infrastructure nodes.</desc>
  <rect width="760" height="560" rx="40" fill="#fafafa"/>
  <rect x="88" y="88" width="584" height="384" rx="34" fill="#fff" stroke="#d8e0ea" stroke-width="2"/>
  <path d="M284 280c-50 0-88 34-88 80 0 45 37 80 86 80h220c50 0 90-35 90-80 0-44-34-78-82-80-15-72-75-122-151-122-59 0-110 31-138 82 23 7 44 21 63 40z" fill="#f1f7ff" stroke="#cbd8e6" stroke-width="2"/>
  <g stroke="#1f7bff" stroke-width="4" stroke-linecap="round" stroke-linejoin="round">
    <path d="M380 300v74"/>
    <path d="M380 374h-96v58"/>
    <path d="M380 374h96v58"/>
    <path d="M380 374v70"/>
  </g>
  <g fill="#fff" stroke="#d8e0ea" stroke-width="2">
    <rect x="236" y="418" width="96" height="58" rx="18"/>
    <rect x="332" y="438" width="96" height="58" rx="18"/>
    <rect x="428" y="418" width="96" height="58" rx="18"/>
    <rect x="146" y="136" width="154" height="52" rx="26"/>
    <rect x="478" y="136" width="136" height="52" rx="26"/>
  </g>
  <g fill="#1f7bff">
    <circle cx="284" cy="447" r="8"/>
    <circle cx="380" cy="467" r="8"/>
    <circle cx="476" cy="447" r="8"/>
  </g>
  <path d="M176 162h92M508 162h74" stroke="#7f96ad" stroke-width="7" stroke-linecap="round"/>
</svg>
